<svg height="512pt" viewBox="0 0 512 512" width="512pt" xmlns="http://www.w3.org/2000/svg" xmlns:xlink="http://www.w3.org/1999/xlink"><linearGradient id="a" gradientTransform="matrix(1 0 0 -1 0 -19594)" gradientUnits="userSpaceOnUse" x1="0" x2="512" y1="-19850" y2="-19850"><stop offset="0" stop-color="#31d8ff"/><stop offset="1" stop-color="#ff80ff"/></linearGradient><path d="m512 256c0 141.386719-114.613281 256-256 256s-256-114.613281-256-256 114.613281-256 256-256 256 114.613281 256 256zm0 0" fill="url(#a)"/><g fill="#fff"><path d="m408.5 88.5h-305c-8.285156 0-15 6.714844-15 15v49.109375c0 8.285156 6.714844 15 15 15s15-6.714844 15-15v-34.109375h122.5v225.890625h-36.695312c-8.285157 0-15 6.714844-15 15s6.714843 15 15 15h103.390624c8.285157 0 15-6.714844 15-15s-6.714843-15-15-15h-36.695312v-225.890625h122.5v34.109375c0 8.285156 6.714844 15 15 15s15-6.714844 15-15v-49.109375c0-8.285156-6.714844-15-15-15zm0 0"/><path d="m383.945312 393.5h-255.890624c-8.285157 0-15 6.714844-15 15s6.714843 15 15 15h255.890624c8.285157 0 15-6.714844 15-15s-6.714843-15-15-15zm0 0"/></g></svg>